HIERARCHY
ROOT joint_Root
{
	OFFSET 0.0 0.0 0.0
	CHANNELS 6 Xposition Yposition Zposition Zrotation Xrotation Yrotation 
	JOINT Hips
	{
		OFFSET -0.726466 93.3139 -2.00062
		CHANNELS 6 Xposition Yposition Zposition Zrotation Xrotation Yrotation 
		JOINT Spine
		{
			OFFSET 15.7357 0.0 0.0
			CHANNELS 6 Xposition Yposition Zposition Zrotation Xrotation Yrotation 
			JOINT Chest
			{
				OFFSET 8.98455 -0.406207 0.0
				CHANNELS 6 Xposition Yposition Zposition Zrotation Xrotation Yrotation 
				JOINT Neck
				{
					OFFSET 16.3773 0.0 0.0
					CHANNELS 6 Xposition Yposition Zposition Zrotation Xrotation Yrotation 
					JOINT Head
					{
						OFFSET 6.45672 0.0 0.0
						CHANNELS 6 Xposition Yposition Zposition Zrotation Xrotation Yrotation 
						End Site
						{
							OFFSET 0.0 0.0 0.0
						}
					}
				}
				JOINT Shoulder_L
				{
					OFFSET 12.9942 -0.242716 4.98039
					CHANNELS 6 Xposition Yposition Zposition Zrotation Xrotation Yrotation 
					JOINT UpperArm_L
					{
						OFFSET 5.34809 0.0 0.0
						CHANNELS 6 Xposition Yposition Zposition Zrotation Xrotation Yrotation 
						JOINT LowerArm_L
						{
							OFFSET 24.3286 1.87007e-05 0.0
							CHANNELS 6 Xposition Yposition Zposition Zrotation Xrotation Yrotation 
							JOINT Hand_L
							{
								OFFSET 22.2916 0.0 0.0
								CHANNELS 6 Xposition Yposition Zposition Zrotation Xrotation Yrotation 
								End Site
								{
									OFFSET 0.0 0.0 0.0
								}
							}
						}
					}
				}
				JOINT Shoulder_R
				{
					OFFSET 12.9945 -0.242716 -4.98039
					CHANNELS 6 Xposition Yposition Zposition Zrotation Xrotation Yrotation 
					JOINT UpperArm_R
					{
						OFFSET -5.34813 0.0 0.0
						CHANNELS 6 Xposition Yposition Zposition Zrotation Xrotation Yrotation 
						JOINT LowerArm_R
						{
							OFFSET -24.3289 0.000322201 0.0
							CHANNELS 6 Xposition Yposition Zposition Zrotation Xrotation Yrotation 
							JOINT Hand_R
							{
								OFFSET -22.2915 -0.000108084 0.0
								CHANNELS 6 Xposition Yposition Zposition Zrotation Xrotation Yrotation 
								End Site
								{
									OFFSET 0.0 0.0 0.0
								}
							}
						}
					}
				}
			}
		}
		JOINT UpperLeg_L
		{
			OFFSET -2.19248 -6.46944 0.0
			CHANNELS 6 Xposition Yposition Zposition Zrotation Xrotation Yrotation 
			JOINT LowerLeg_L
			{
				OFFSET 39.0811 0.0 -1.23785e-05
				CHANNELS 6 Xposition Yposition Zposition Zrotation Xrotation Yrotation 
				JOINT Foot_L
				{
					OFFSET 40.9854 0.0 -1.26872e-05
					CHANNELS 6 Xposition Yposition Zposition Zrotation Xrotation Yrotation 
					JOINT Toes_L
					{
						OFFSET 11.7543 0.0 0.0
						CHANNELS 6 Xposition Yposition Zposition Zrotation Xrotation Yrotation 
						End Site
						{
							OFFSET 0.0 0.0 0.0
						}
					}
				}
			}
		}
		JOINT UpperLeg_R
		{
			OFFSET -2.19251 6.46944 0.0
			CHANNELS 6 Xposition Yposition Zposition Zrotation Xrotation Yrotation 
			JOINT LowerLeg_R
			{
				OFFSET -39.0811 -0.00228153 -0.0401928
				CHANNELS 6 Xposition Yposition Zposition Zrotation Xrotation Yrotation 
				JOINT Foot_R
				{
					OFFSET -40.9854 0.0 0.0
					CHANNELS 6 Xposition Yposition Zposition Zrotation Xrotation Yrotation 
					JOINT Toes_R
					{
						OFFSET -11.7543 0.0 0.0
						CHANNELS 6 Xposition Yposition Zposition Zrotation Xrotation Yrotation 
						End Site
						{
							OFFSET 0.0 0.0 0.0
						}
					}
				}
			}
		}
	}
}
MOTION
Frames:	9
Frame Time:	0.0333333
0.000000 0.000000 0.000000 0.000000 0.000000 -0.000000 -1.002680 92.366800 -1.273280 87.929000 -1.775170 3.263890 15.735700 0.000005 -0.000001 83.348600 85.144700 -82.667400 8.984550 -0.406207 -0.000000 1.886860 -1.159000 1.380250 16.377300 -0.000001 -0.000001 2.268320 -2.507680 0.908420 6.456720 -0.000001 -0.000000 3.424240 -2.470470 -0.521869 12.994200 -0.242716 4.980390 -89.969700 -0.098865 -72.927800 5.348090 -0.000007 -0.000001 -66.723300 43.514200 -15.983300 24.328600 0.000019 0.000005 1.028320 2.391680 -23.272900 22.291600 -0.000001 0.000005 4.457800 5.512850 -7.059850 12.994500 -0.242716 -4.980390 88.057800 6.618490 -73.605000 -5.348130 -0.000001 -0.000004 -65.947200 36.807800 -16.930600 -24.328900 0.000322 -0.000009 2.849540 9.407240 -16.942600 -22.291500 -0.000108 -0.000004 6.008500 5.377120 -2.206840 -2.192480 -6.469440 -0.000000 -175.432000 -5.696110 -2.995030 39.081100 -0.000007 -0.000012 -0.094211 0.229025 22.360300 40.985400 -0.000006 -0.000013 -0.376258 3.234270 -66.285500 11.754300 -0.000000 0.000003 -0.000054 -0.000609 -16.601200 -2.192510 6.469440 -0.000001 -179.547000 13.559400 179.838000 -39.081100 -0.002282 -0.040193 0.018539 -0.044707 18.795700 -40.985400 0.000008 0.000006 5.365400 7.024710 -66.172700 -11.754300 -0.000006 -0.000006 -0.005829 -0.069273 -19.392300
0.000000 0.000000 0.000000 0.000000 0.000000 -0.000000 -0.989107 92.362600 -1.275090 87.909600 -1.713320 3.235840 15.735700 0.000005 -0.000001 83.300800 85.146900 -82.662200 8.984550 -0.406207 -0.000000 1.881100 -1.164390 1.295150 16.377300 -0.000001 -0.000001 2.164750 -2.450030 0.858221 6.456720 -0.000001 -0.000000 3.294010 -2.420290 -0.544030 12.994200 -0.242716 4.980390 -89.960500 -0.128341 -72.882500 5.348090 -0.000007 -0.000001 -66.579500 43.440400 -16.216800 24.328600 0.000019 0.000005 1.070230 2.482720 -23.327600 22.291600 -0.000001 0.000005 4.508280 5.511660 -7.010650 12.994500 -0.242716 -4.980390 88.046800 6.589650 -73.449500 -5.348130 -0.000001 -0.000004 -66.177200 34.831300 -16.904100 -24.328900 0.000322 -0.000009 3.258120 9.800470 -18.497600 -22.291500 -0.000108 -0.000004 4.398060 5.362670 -1.759080 -2.192480 -6.469440 -0.000000 -175.423000 -5.687180 -3.073080 39.081100 -0.000007 -0.000012 -0.094025 0.227861 22.423100 40.985400 -0.000006 -0.000013 -0.359722 3.268560 -66.302300 11.754300 -0.000000 0.000003 -0.000044 -0.000511 -16.597400 -2.192510 6.469440 -0.000001 -179.543000 13.674900 179.796000 -39.081100 -0.002282 -0.040193 0.017073 -0.040325 18.827700 -40.985400 0.000008 0.000006 5.433820 7.057540 -66.202200 -11.754300 -0.000006 -0.000006 -0.005899 -0.069919 -19.418600
0.000000 0.000000 0.000000 0.000000 0.000000 -0.000000 -0.953818 92.384300 -1.334300 87.932900 -1.748470 3.199800 15.735700 0.000005 -0.000001 83.186600 85.164600 -82.621400 8.984550 -0.406207 -0.000000 1.842880 -1.175810 1.148230 16.377300 -0.000001 -0.000001 2.084960 -2.282360 0.725839 6.456720 -0.000001 -0.000000 3.123470 -2.186070 -0.358422 12.994200 -0.242716 4.980390 -89.934400 -0.211800 -72.786000 5.348090 -0.000007 -0.000001 -66.664200 43.175300 -16.241400 24.328600 0.000019 0.000005 1.081670 2.498090 -23.420900 22.291600 -0.000001 0.000005 4.453330 5.511690 -7.011710 12.994500 -0.242716 -4.980390 87.986600 6.686860 -73.200500 -5.348130 -0.000001 -0.000004 -66.373800 30.948800 -17.107200 -24.328900 0.000322 -0.000009 3.314720 8.562660 -21.265300 -22.291500 -0.000108 -0.000004 2.712940 5.348420 -1.329330 -2.192480 -6.469440 -0.000000 -175.480000 -5.725420 -3.073190 39.081100 -0.000007 -0.000012 -0.092233 0.225058 22.284700 40.985400 -0.000006 -0.000013 -0.337631 3.253170 -66.200500 11.754300 -0.000000 0.000003 -0.000047 -0.000532 -16.598200 -2.192510 6.469440 -0.000001 -179.545000 13.584100 179.749000 -39.081100 -0.002282 -0.040193 0.020168 -0.049663 18.736000 -40.985400 0.000008 0.000006 5.448440 7.015250 -66.103400 -11.754300 -0.000006 -0.000006 -0.005847 -0.069440 -19.399100
0.000000 0.000000 0.000000 0.000000 0.000000 -0.000000 -0.881622 92.397700 -1.409250 87.924200 -1.969100 3.058550 15.735700 0.000005 -0.000001 82.869700 85.211300 -82.372300 8.984550 -0.406207 -0.000000 1.743100 -1.214250 1.012410 16.377300 -0.000001 -0.000001 2.076920 -2.010120 0.629596 6.456720 -0.000001 -0.000000 2.748570 -1.783900 -0.303941 12.994200 -0.242716 4.980390 -89.925300 -0.238838 -72.640200 5.348090 -0.000007 -0.000001 -66.780100 42.927000 -16.098000 24.328600 0.000019 0.000005 0.962133 2.204540 -23.584200 22.291600 -0.000001 0.000005 4.595570 5.512040 -7.026520 12.994500 -0.242716 -4.980390 87.917000 6.779900 -72.876400 -5.348130 -0.000001 -0.000004 -65.817000 26.666100 -18.641800 -24.328900 0.000322 -0.000009 3.018820 6.484050 -25.043600 -22.291500 -0.000108 -0.000004 2.387120 5.349270 -1.354540 -2.192480 -6.469440 -0.000000 -175.537000 -5.874940 -3.227670 39.081100 -0.000007 -0.000012 -0.091253 0.223054 22.249800 40.985400 -0.000006 -0.000013 -0.307380 3.151220 -66.141800 11.754300 -0.000000 0.000003 -0.000040 -0.000461 -16.595500 -2.192510 6.469440 -0.000001 -179.519000 13.404000 179.533000 -39.081100 -0.002282 -0.040193 0.021227 -0.052825 18.722300 -40.985400 0.000008 0.000006 5.457860 7.039170 -66.017800 -11.754300 -0.000006 -0.000006 -0.005813 -0.069127 -19.386300
0.000000 0.000000 0.000000 0.000000 0.000000 -0.000000 -0.781707 92.422600 -1.507140 87.871900 -2.427180 2.944790 15.735700 0.000005 -0.000001 82.714300 85.265400 -82.263200 8.984550 -0.406207 -0.000000 1.632010 -1.224330 0.918870 16.377300 -0.000001 -0.000001 2.083080 -1.722470 0.614789 6.456720 -0.000001 -0.000000 2.309240 -1.278570 -0.413390 12.994200 -0.242716 4.980390 -89.920100 -0.253652 -72.507800 5.348090 -0.000007 -0.000001 -66.950100 42.728000 -15.864200 24.328600 0.000019 0.000005 1.003950 2.298890 -23.598100 22.291600 -0.000001 0.000005 4.386850 5.509450 -6.918830 12.994500 -0.242716 -4.980390 87.874500 6.762950 -72.507500 -5.348130 -0.000001 -0.000004 -64.481500 22.711300 -21.550900 -24.328900 0.000322 -0.000009 3.481810 5.976710 -30.305200 -22.291500 -0.000108 -0.000004 4.324950 5.345940 -1.255680 -2.192480 -6.469440 -0.000000 -175.578000 -6.131390 -3.305690 39.081100 -0.000007 -0.000012 -0.089259 0.219105 22.165000 40.985400 -0.000006 -0.000013 -0.274808 2.930360 -66.068000 11.754300 -0.000000 0.000003 -0.000047 -0.000535 -16.598300 -2.192510 6.469440 -0.000001 -179.475000 13.066800 179.367000 -39.081100 -0.002282 -0.040193 0.023020 -0.058507 18.606000 -40.985400 0.000008 0.000006 5.468040 7.200900 -65.854800 -11.754300 -0.000006 -0.000006 -0.006188 -0.072536 -19.525300
0.000000 0.000000 0.000000 0.000000 0.000000 -0.000000 -0.648953 92.438900 -1.600410 87.792700 -3.059830 2.892240 15.735700 0.000005 -0.000001 82.902900 85.306700 -82.488900 8.984550 -0.406207 -0.000000 1.553340 -1.181550 0.843137 16.377300 -0.000001 -0.000001 2.044090 -1.425020 0.614847 6.456720 -0.000001 -0.000000 1.912640 -0.857522 -0.523002 12.994200 -0.242716 4.980390 -89.932500 -0.212816 -72.399600 5.348090 -0.000007 -0.000001 -67.000400 42.719700 -15.688600 24.328600 0.000019 0.000005 1.025290 2.362450 -23.468100 22.291600 -0.000001 0.000005 4.389650 5.508190 -6.866500 12.994500 -0.242716 -4.980390 87.902100 6.601540 -72.326100 -5.348130 -0.000001 -0.000004 -63.205700 18.273800 -25.341400 -24.328900 0.000322 -0.000009 4.703410 6.343660 -36.676800 -22.291500 -0.000108 -0.000004 7.010860 5.349290 -1.356530 -2.192480 -6.469440 -0.000000 -175.602000 -6.475320 -3.318790 39.081100 -0.000007 -0.000012 -0.085347 0.209698 22.146300 40.985400 -0.000006 -0.000013 -0.240341 2.626140 -66.052700 11.754300 -0.000000 0.000003 -0.000050 -0.000566 -16.599500 -2.192510 6.469440 -0.000001 -179.449000 12.657600 179.238000 -39.081100 -0.002282 -0.040193 0.022260 -0.056487 18.532300 -40.985400 0.000008 0.000006 5.387340 7.440830 -65.688600 -11.754300 -0.000006 -0.000006 -0.005930 -0.070196 -19.429900
0.000000 0.000000 0.000000 0.000000 0.000000 -0.000000 -0.513102 92.448800 -1.687030 87.702000 -3.723130 2.823080 15.735700 0.000005 -0.000001 83.358000 85.353900 -82.983800 8.984550 -0.406207 -0.000000 1.467770 -1.094800 0.761790 16.377300 -0.000001 -0.000001 1.999470 -1.162360 0.661822 6.456720 -0.000001 -0.000000 1.416330 -0.532558 -0.580817 12.994200 -0.242716 4.980390 -89.947100 -0.165687 -72.275400 5.348090 -0.000007 -0.000001 -67.030800 42.664500 -15.620000 24.328600 0.000019 0.000005 1.157960 2.706380 -23.174100 22.291600 -0.000001 0.000005 4.388030 5.509790 -6.933050 12.994500 -0.242716 -4.980390 87.984300 6.297620 -72.211400 -5.348130 -0.000001 -0.000004 -62.194900 13.604100 -29.791200 -24.328900 0.000322 -0.000009 6.406640 6.685680 -43.964100 -22.291500 -0.000108 -0.000004 9.839510 5.340540 -1.096350 -2.192480 -6.469440 -0.000000 -175.611000 -6.843830 -3.374180 39.081100 -0.000007 -0.000012 -0.085885 0.210639 22.182400 40.985400 -0.000006 -0.000013 -0.210424 2.308360 -66.063100 11.754300 -0.000000 0.000003 -0.000044 -0.000511 -16.597400 -2.192510 6.469440 -0.000001 -179.410000 12.196500 179.066000 -39.081100 -0.002282 -0.040193 0.022019 -0.055844 18.509200 -40.985400 0.000008 0.000006 5.343100 7.652050 -65.550200 -11.754300 -0.000006 -0.000006 -0.005771 -0.068738 -19.370400
0.000000 0.000000 0.000000 0.000000 0.000000 -0.000000 -0.367567 92.466300 -1.765970 87.642200 -4.228780 2.847560 15.735700 0.000005 -0.000001 83.803300 85.393600 -83.489800 8.984550 -0.406207 -0.000000 1.396110 -1.011390 0.638699 16.377300 -0.000001 -0.000001 1.948940 -1.033230 0.726903 6.456720 -0.000001 -0.000000 0.952426 -0.383025 -0.524024 12.994200 -0.242716 4.980390 -89.951100 -0.152448 -72.207400 5.348090 -0.000007 -0.000001 -67.084800 42.582700 -15.511300 24.328600 0.000019 0.000005 1.137640 2.682920 -22.987800 22.291600 -0.000001 0.000005 4.439910 5.509820 -6.934030 12.994500 -0.242716 -4.980390 88.121900 5.847610 -72.159200 -5.348130 -0.000001 -0.000004 -61.791400 8.621020 -34.484900 -24.328900 0.000322 -0.000009 8.150280 6.451230 -51.885400 -22.291500 -0.000108 -0.000004 12.239200 5.336860 -0.987099 -2.192480 -6.469440 -0.000000 -175.668000 -7.006740 -3.311220 39.081100 -0.000007 -0.000012 -0.084001 0.206493 22.136500 40.985400 -0.000006 -0.000013 -0.180636 1.945280 -66.031900 11.754300 -0.000000 0.000003 -0.000042 -0.000481 -16.596300 -2.192510 6.469440 -0.000001 -179.423000 11.893100 179.040000 -39.081100 -0.002282 -0.040193 0.025772 -0.067324 18.439500 -40.985400 0.000008 0.000006 5.457550 7.879150 -65.448600 -11.754300 -0.000006 -0.000006 -0.005860 -0.069557 -19.403900
0.000000 0.000000 0.000000 0.000000 0.000000 -0.000000 -0.242416 92.470500 -1.825970 87.596700 -4.560800 2.827200 15.735700 0.000005 -0.000001 83.957800 85.438200 -83.703900 8.984550 -0.406207 -0.000000 1.309360 -0.974210 0.518540 16.377300 -0.000001 -0.000001 1.821020 -0.966381 0.819023 6.456720 -0.000001 -0.000000 0.541510 -0.410275 -0.463601 12.994200 -0.242716 4.980390 -89.967400 -0.100972 -72.078800 5.348090 -0.000007 -0.000001 -67.033900 42.512300 -15.475800 24.328600 0.000019 0.000005 1.148540 2.713610 -22.950200 22.291600 -0.000001 0.000005 4.514620 5.512260 -7.035670 12.994500 -0.242716 -4.980390 88.296100 5.337870 -72.267500 -5.348130 -0.000001 -0.000004 -61.879900 3.501640 -39.492300 -24.328900 0.000322 -0.000009 9.597410 5.541980 -60.268100 -22.291500 -0.000108 -0.000004 14.724700 5.334950 -0.930936 -2.192480 -6.469440 -0.000000 -175.705000 -7.218620 -3.340900 39.081100 -0.000007 -0.000012 -0.083824 0.205698 22.171400 40.985400 -0.000006 -0.000013 -0.120498 1.817850 -66.042000 11.754300 -0.000000 0.000003 -0.000043 -0.000499 -16.597000 -2.192510 6.469440 -0.000001 -179.442000 11.702100 178.939000 -39.081100 -0.002282 -0.040193 0.026485 -0.069399 18.455800 -40.985400 0.000008 0.000006 5.402080 8.012900 -65.365200 -11.754300 -0.000006 -0.000006 -0.005854 -0.069500 -19.401500
